<svg xmlns="http://www.w3.org/2000/svg" width="420" height="420" viewBox="0 0 420 420">
  <defs>
    <g id="sunflower">
      <circle r="54" fill="none" stroke="#fff8dc" stroke-width="20" opacity=".55"/>
      <g fill="#ffc928" stroke="#4b1d08" stroke-width="2.1" stroke-linecap="round" stroke-linejoin="round" opacity=".24">
        <ellipse cx="0" cy="-62" rx="13" ry="34"/>
        <ellipse cx="0" cy="-62" rx="13" ry="34" transform="rotate(18)"/>
        <ellipse cx="0" cy="-62" rx="13" ry="34" transform="rotate(36)"/>
        <ellipse cx="0" cy="-62" rx="13" ry="34" transform="rotate(54)"/>
        <ellipse cx="0" cy="-62" rx="13" ry="34" transform="rotate(72)"/>
        <ellipse cx="0" cy="-62" rx="13" ry="34" transform="rotate(90)"/>
        <ellipse cx="0" cy="-62" rx="13" ry="34" transform="rotate(108)"/>
        <ellipse cx="0" cy="-62" rx="13" ry="34" transform="rotate(126)"/>
        <ellipse cx="0" cy="-62" rx="13" ry="34" transform="rotate(144)"/>
        <ellipse cx="0" cy="-62" rx="13" ry="34" transform="rotate(162)"/>
        <ellipse cx="0" cy="-62" rx="13" ry="34" transform="rotate(180)"/>
        <ellipse cx="0" cy="-62" rx="13" ry="34" transform="rotate(198)"/>
        <ellipse cx="0" cy="-62" rx="13" ry="34" transform="rotate(216)"/>
        <ellipse cx="0" cy="-62" rx="13" ry="34" transform="rotate(234)"/>
        <ellipse cx="0" cy="-62" rx="13" ry="34" transform="rotate(252)"/>
        <ellipse cx="0" cy="-62" rx="13" ry="34" transform="rotate(270)"/>
        <ellipse cx="0" cy="-62" rx="13" ry="34" transform="rotate(288)"/>
        <ellipse cx="0" cy="-62" rx="13" ry="34" transform="rotate(306)"/>
        <ellipse cx="0" cy="-62" rx="13" ry="34" transform="rotate(324)"/>
        <ellipse cx="0" cy="-62" rx="13" ry="34" transform="rotate(342)"/>
      </g>
      <circle r="30" fill="#3b1707" opacity=".22"/>
      <circle r="13" fill="#6f3a18" opacity=".16"/>
    </g>
  </defs>
  <rect width="420" height="420" fill="none"/>
  <g transform="translate(72 72) rotate(-10)">
    <use href="#sunflower"/>
  </g>
  <g transform="translate(292 118) scale(.76) rotate(16)">
    <use href="#sunflower"/>
  </g>
  <g transform="translate(160 305) scale(.62) rotate(-18)">
    <use href="#sunflower"/>
  </g>
  <g transform="translate(407 316) scale(1.08) rotate(8)">
    <use href="#sunflower"/>
  </g>
  <g transform="translate(16 385) scale(.92) rotate(20)">
    <use href="#sunflower"/>
  </g>
</svg>
