<svg xmlns="http://www.w3.org/2000/svg" viewBox="0 0 120 120" role="img" aria-label="Girassol">
  <defs>
    <linearGradient id="petal" x1="0" x2="1" y1="0" y2="1">
      <stop offset="0" stop-color="#ffd34f"/>
      <stop offset="1" stop-color="#f2a900"/>
    </linearGradient>
    <radialGradient id="core" cx="45%" cy="42%" r="58%">
      <stop offset="0" stop-color="#7a3a0b"/>
      <stop offset="1" stop-color="#351102"/>
    </radialGradient>
  </defs>
  <g transform="translate(60 60)">
    <g fill="url(#petal)" stroke="#c97700" stroke-width="1.4">
      <ellipse rx="9" ry="25" transform="rotate(0) translate(0 -38)"/>
      <ellipse rx="9" ry="25" transform="rotate(22.5) translate(0 -38)"/>
      <ellipse rx="9" ry="25" transform="rotate(45) translate(0 -38)"/>
      <ellipse rx="9" ry="25" transform="rotate(67.5) translate(0 -38)"/>
      <ellipse rx="9" ry="25" transform="rotate(90) translate(0 -38)"/>
      <ellipse rx="9" ry="25" transform="rotate(112.5) translate(0 -38)"/>
      <ellipse rx="9" ry="25" transform="rotate(135) translate(0 -38)"/>
      <ellipse rx="9" ry="25" transform="rotate(157.5) translate(0 -38)"/>
      <ellipse rx="9" ry="25" transform="rotate(180) translate(0 -38)"/>
      <ellipse rx="9" ry="25" transform="rotate(202.5) translate(0 -38)"/>
      <ellipse rx="9" ry="25" transform="rotate(225) translate(0 -38)"/>
      <ellipse rx="9" ry="25" transform="rotate(247.5) translate(0 -38)"/>
      <ellipse rx="9" ry="25" transform="rotate(270) translate(0 -38)"/>
      <ellipse rx="9" ry="25" transform="rotate(292.5) translate(0 -38)"/>
      <ellipse rx="9" ry="25" transform="rotate(315) translate(0 -38)"/>
      <ellipse rx="9" ry="25" transform="rotate(337.5) translate(0 -38)"/>
    </g>
    <circle r="26" fill="url(#core)"/>
    <g fill="#9a5a12" opacity=".7">
      <circle r="2.2" cx="-10" cy="-8"/>
      <circle r="2.2" cx="2" cy="-13"/>
      <circle r="2.2" cx="12" cy="-5"/>
      <circle r="2.2" cx="-2" cy="1"/>
      <circle r="2.2" cx="-14" cy="7"/>
      <circle r="2.2" cx="9" cy="10"/>
      <circle r="2.2" cx="-3" cy="14"/>
    </g>
  </g>
</svg>
