<svg xmlns="http://www.w3.org/2000/svg" width="260" height="260" viewBox="0 0 260 260">
  <defs>
    <g id="flower" opacity=".17">
      <g fill="#ffb703" stroke="#d98d00" stroke-width="1">
        <ellipse cx="0" cy="-23" rx="6" ry="18"/>
        <ellipse cx="0" cy="-23" rx="6" ry="18" transform="rotate(30)"/>
        <ellipse cx="0" cy="-23" rx="6" ry="18" transform="rotate(60)"/>
        <ellipse cx="0" cy="-23" rx="6" ry="18" transform="rotate(90)"/>
        <ellipse cx="0" cy="-23" rx="6" ry="18" transform="rotate(120)"/>
        <ellipse cx="0" cy="-23" rx="6" ry="18" transform="rotate(150)"/>
        <ellipse cx="0" cy="-23" rx="6" ry="18" transform="rotate(180)"/>
        <ellipse cx="0" cy="-23" rx="6" ry="18" transform="rotate(210)"/>
        <ellipse cx="0" cy="-23" rx="6" ry="18" transform="rotate(240)"/>
        <ellipse cx="0" cy="-23" rx="6" ry="18" transform="rotate(270)"/>
        <ellipse cx="0" cy="-23" rx="6" ry="18" transform="rotate(300)"/>
        <ellipse cx="0" cy="-23" rx="6" ry="18" transform="rotate(330)"/>
      </g>
      <circle r="16" fill="#4b1d08"/>
      <circle r="5" fill="#8a4b17"/>
    </g>
  </defs>
  <rect width="260" height="260" fill="none"/>
  <g transform="translate(55 55)"><use href="#flower"/></g>
  <g transform="translate(198 118) scale(.72) rotate(18)"><use href="#flower"/></g>
  <g transform="translate(112 212) scale(.58) rotate(-12)"><use href="#flower"/></g>
</svg>
